<?xml version="1.0" encoding="UTF-8"?>
<svg id="Layer_2" data-name="Layer 2" xmlns="http://www.w3.org/2000/svg" viewBox="0 0 1971.06 200.66">
  <defs>
    <style>
      .cls-1 {
        fill: #fff;
      }
    </style>
  </defs>
  <g id="Layer_1-2" data-name="Layer 1">
    <path class="cls-1" d="M0,200.66V59.72C40.42,36.36,107.27,4.88,192,.49c126.94-6.57,157.13,54.76,324.76,73.53,128.31,14.37,127.74-20.92,269.62,0,58.31,8.6,107.79,22,181.79,10.21,47.91-7.63,55.45-17.76,122.55-32.68,43.14-9.59,103.19-22.94,171.58-20.42,96.86,3.57,95.16,34.73,218.55,44.93,60.35,4.99,108.01,1.45,145.02-4.08,38.77-5.79,66.46-13.85,75.58-16.34,46.77-12.79,126.01-21.73,269.61-6.98V200.66S0,200.66,0,200.66Z"/>
  </g>
</svg>